<svg width="196" height="46" viewBox="0 0 196 46" fill="none" xmlns="http://www.w3.org/2000/svg">
<g id="Layer_1" clip-path="url(#clip0_448_226)">
<g id="Group">
<path id="Vector" d="M151.421 0.46875C148.392 0.46875 146.452 2.48314 146.452 5.47232V40.9867C146.452 43.9773 148.392 45.9903 151.421 45.9903C154.449 45.9903 156.387 43.9759 156.387 40.9867V5.47232C156.387 2.48176 154.449 0.46875 151.421 0.46875Z" fill="white"/>
<path id="Vector_2" d="M191.094 0.46875C189.034 0.46875 187.945 1.20088 186.794 3.39726L178.193 19.4462L169.529 3.39726C168.5 1.44492 167.409 0.46875 165.047 0.46875C163.109 0.46875 160.021 1.6283 160.021 5.0449C160.021 5.9604 160.385 6.87591 160.869 7.6687L173.046 28.0497V40.9867C173.046 43.9773 174.981 45.9903 178.01 45.9903C181.038 45.9903 182.979 43.9759 182.979 40.9867V28.0497L195.153 7.6687C195.637 6.87591 196.001 5.9604 196.001 5.0449C196.001 1.6283 192.913 0.46875 191.095 0.46875H191.094Z" fill="white"/>
<path id="Vector_3" d="M38.1133 37.1445H29.6682C29.6518 37.1445 29.6354 37.1445 29.6189 37.1445H9.93423V26.5265H26.7724C29.3767 26.5265 31.4363 25.7944 31.4363 22.6825C31.4363 19.5706 29.3767 18.8385 26.7724 18.8385H9.93423V9.31944H29.1345C32.0412 9.31944 34.161 8.4646 34.161 5.29205C34.161 2.11949 32.0412 1.26465 29.1345 1.26465H5.815C2.30202 1.26189 0.00018292 2.66549 0.00018292 7.1203V39.3133C0.00018292 39.3229 0.00018292 39.3312 0.00018292 39.3408C-0.0326614 46.476 4.36848 45.992 4.36848 45.992H47.5424C48.0569 45.992 48.1609 45.2613 47.6683 45.1124C42.1436 43.451 39.059 40.204 38.1133 37.1431V37.1445Z" fill="white"/>
</g>
<path id="Vector_4" d="M64.0204 33.1163C64.0204 36.0448 61.1739 38.914 56.0256 38.914C49.6538 38.914 47.8788 35.7277 46.0614 33.3934C46.0614 33.3934 46.0587 33.3906 46.0532 33.3837C46.0436 33.3713 46.0258 33.3507 46.0026 33.3176C45.9971 33.312 45.993 33.3079 45.9903 33.2996C44.9611 31.9953 43.9005 30.9805 41.9723 30.9805C41.897 30.9805 41.8231 30.9833 41.7506 30.9861C41.6972 30.9888 41.6452 30.9916 41.5946 30.9957C41.5439 30.9985 41.496 31.004 41.4482 31.0081C41.3825 31.0164 41.3168 31.0233 41.2511 31.0329C41.1703 31.0426 41.0896 31.0578 41.0089 31.0757C40.9363 31.0908 40.8597 31.106 40.7899 31.1267C40.7475 31.1363 40.7037 31.1474 40.6613 31.1625C40.6188 31.1722 40.5778 31.186 40.5354 31.2011C40.4245 31.237 40.3164 31.2742 40.2124 31.3211C40.1672 31.339 40.1234 31.3597 40.081 31.379C40.0632 31.3873 40.0454 31.3942 40.0304 31.4024C39.9879 31.4231 39.9442 31.4438 39.9045 31.4659C39.8087 31.5141 39.7183 31.5679 39.6294 31.6231C39.5993 31.641 39.5692 31.6617 39.5391 31.681C39.4994 31.7058 39.4611 31.732 39.4228 31.7623C39.3844 31.7871 39.3475 31.8161 39.3119 31.8464C39.2763 31.8712 39.2435 31.8974 39.2106 31.9278C39.0491 32.0601 38.9 32.2077 38.7645 32.3648C38.4689 32.7081 37.916 32.5179 37.916 32.0643V16.5489C38.0529 16.3531 38.1706 16.5489 38.1706 16.5489C38.8972 20.284 41.4003 23.8261 48.5754 25.6695L49.4991 25.9053H49.5019L49.7797 25.977L59.7808 28.5374C63.1719 29.3922 64.0204 31.3445 64.0204 33.1135V33.1163Z" fill="white"/>
<path id="Vector_5" d="M141.85 37.7518L129.858 4.12902C128.767 1.01713 126.769 0.467002 124.528 0.467002H122.166C119.743 0.467002 118.168 1.2598 117.32 3.51823L104.479 37.7518C104.35 38.1006 104.192 38.5501 104.04 39.0313C103.672 38.2895 103.139 37.5339 102.622 36.7356L90.5695 18.2463L100.744 7.44497C101.594 6.59013 102.38 5.55329 102.38 4.02837C102.38 1.46523 100.018 0.000976562 97.6557 0.000976562C95.8999 0.000976562 94.8694 0.977148 93.7185 2.19736L79.2656 18.2256V3.77054C79.2656 1.9478 77.7999 0.469759 75.9894 0.469759H59.5658C59.3181 0.469759 59.4673 0.602121 59.4905 0.622803L59.4933 0.625561H59.496C59.5165 0.628318 59.5343 0.633833 59.5535 0.635212C59.7985 0.680712 60.0407 0.731726 60.2857 0.785498C60.3089 0.791013 60.3308 0.793771 60.3541 0.797907C60.9316 0.927512 61.505 1.0778 62.0702 1.24601C62.9228 1.49832 63.7535 1.79476 64.5513 2.13118C64.5568 2.13394 64.5636 2.1367 64.5691 2.13945C64.7155 2.20012 64.8592 2.26354 65.0029 2.32697C65.0276 2.33938 65.0536 2.35041 65.0809 2.36281C65.2178 2.42348 65.3533 2.4869 65.4874 2.55033C65.5106 2.56274 65.5353 2.57377 65.5585 2.58618C65.9773 2.78748 66.3865 3.00256 66.7779 3.2273C66.8053 3.24247 66.834 3.25764 66.8586 3.2728C66.964 3.33347 67.0653 3.39552 67.1665 3.45618C67.2227 3.48927 67.2747 3.52236 67.328 3.55545C67.4211 3.61198 67.5155 3.67265 67.6058 3.73056C67.6633 3.76916 67.7222 3.80639 67.7796 3.845C67.8686 3.9029 67.9534 3.96219 68.0397 4.0201C68.0999 4.06284 68.1615 4.10696 68.2189 4.1497C68.2997 4.20623 68.3832 4.26414 68.4612 4.32205C68.5419 4.38272 68.6199 4.44476 68.6979 4.50543C68.8088 4.59229 68.9169 4.67777 69.0236 4.7674C69.092 4.82392 69.1605 4.87908 69.2248 4.93836C69.2877 4.99213 69.348 5.04453 69.4095 5.10106C69.4725 5.15897 69.5382 5.21825 69.6011 5.27616C69.6586 5.32993 69.7147 5.38509 69.7708 5.43886C69.8365 5.50228 69.8967 5.56295 69.9597 5.62637C70.0103 5.68014 70.0637 5.73254 70.113 5.78631C70.1814 5.85938 70.2471 5.93384 70.3155 6.00967C70.3538 6.05241 70.3935 6.09653 70.4318 6.14203C70.5303 6.25647 70.6261 6.37366 70.7165 6.49224C70.7493 6.53498 70.7822 6.5791 70.8123 6.62184C70.8725 6.70319 70.9341 6.78454 70.9915 6.86864C71.0244 6.91966 71.06 6.97067 71.0928 7.02169C71.1434 7.10028 71.1941 7.17749 71.242 7.25608C71.2721 7.30985 71.3049 7.36087 71.335 7.41326C71.3802 7.49461 71.4254 7.57871 71.4719 7.66282C71.4965 7.71107 71.5225 7.75933 71.5472 7.80759C71.6005 7.91375 71.6484 8.0213 71.6963 8.13022C71.7059 8.15504 71.7196 8.18124 71.7319 8.20605C71.788 8.33842 71.8373 8.47354 71.8838 8.61003C71.8989 8.6514 71.9084 8.69414 71.9249 8.73688C71.955 8.8334 71.9823 8.92715 72.0083 9.02367C72.0234 9.07468 72.033 9.12845 72.0467 9.17809C72.0699 9.26909 72.0864 9.36146 72.1041 9.45246C72.1137 9.50348 72.1219 9.55725 72.1315 9.60689C72.1466 9.70616 72.1561 9.80267 72.1671 9.90194C72.1726 9.94744 72.1794 9.99294 72.1821 10.0398C72.1917 10.1846 72.1999 10.3266 72.1999 10.4741C72.1999 12.9766 70.0801 14.4409 67.6578 14.4409C63.0542 14.4409 63.9026 7.911 54.6351 7.911C50.0314 7.911 47.4873 10.0467 47.4873 13.0979C47.4873 16.1492 51.1221 17.1253 54.271 17.8575L62.5683 19.7491C71.6539 21.8242 73.9557 27.2552 73.9557 32.3801C73.9557 38.7059 70.18 43.7508 62.567 45.535C62.5588 45.5377 62.5423 45.5405 62.5163 45.5446H62.5136L62.5109 45.5474H62.5081C62.4876 45.5653 62.4041 45.6411 62.4192 45.7556C62.4397 45.8879 62.5273 45.9665 62.6012 45.9872H75.9921C77.8013 45.9872 79.2683 44.5105 79.2683 42.6864V29.384L83.549 25.074L94.9939 42.8918C96.3269 45.0276 97.4162 45.5156 99.4156 45.5156C101.066 45.5156 102.893 44.9738 103.843 43.3799C104.491 45.0096 106.064 45.9831 108.118 45.9831C110.48 45.9831 111.873 45.1903 112.54 43.2365L115.144 35.9139H131.134L133.678 43.2365C134.404 45.1889 135.98 45.9831 138.16 45.9831C140.704 45.9831 142.823 44.0307 142.823 41.5889C142.823 40.49 142.217 38.7211 141.855 37.7449L141.85 37.7518ZM117.32 28.9649L123.195 11.329H123.317L128.949 28.9649H117.32Z" fill="white"/>
</g>
<defs>
<clipPath id="clip0_448_226">
<rect width="196" height="46" fill="white"/>
</clipPath>
</defs>
</svg>
